<?xml version="1.0" encoding="UTF-8" standalone="no"?>
<!-- Created with Inkscape (http://www.inkscape.org/) -->

<svg
   xmlns:dc="http://purl.org/dc/elements/1.1/"
   xmlns:cc="http://creativecommons.org/ns#"
   xmlns:rdf="http://www.w3.org/1999/02/22-rdf-syntax-ns#"
   xmlns:svg="http://www.w3.org/2000/svg"
   xmlns="http://www.w3.org/2000/svg"
   xmlns:sodipodi="http://sodipodi.sourceforge.net/DTD/sodipodi-0.dtd"
   xmlns:inkscape="http://www.inkscape.org/namespaces/inkscape"
   width="200mm"
   height="200mm"
   viewBox="0 0 200 200"
   version="1.1"
   id="svg8"
   inkscape:version="0.92.2 5c3e80d, 2017-08-06"
   sodipodi:docname="Logo.svg">
  <defs
     id="defs2" />
  <sodipodi:namedview
     id="base"
     pagecolor="#ffffff"
     bordercolor="#666666"
     borderopacity="1.0"
     inkscape:pageopacity="0.0"
     inkscape:pageshadow="2"
     inkscape:zoom="0.35"
     inkscape:cx="150.08921"
     inkscape:cy="486.25376"
     inkscape:document-units="mm"
     inkscape:current-layer="layer1"
     showgrid="false"
     inkscape:window-width="1920"
     inkscape:window-height="953"
     inkscape:window-x="0"
     inkscape:window-y="1"
     inkscape:window-maximized="1" />
  <metadata
     id="metadata5">
    <rdf:RDF>
      <cc:Work
         rdf:about="">
        <dc:format>image/svg+xml</dc:format>
        <dc:type
           rdf:resource="http://purl.org/dc/dcmitype/StillImage" />
        <dc:title></dc:title>
      </cc:Work>
    </rdf:RDF>
  </metadata>
  <g
     inkscape:label="Layer 1"
     inkscape:groupmode="layer"
     id="layer1"
     transform="translate(0,-97)">
    <g
       id="g471"
       transform="matrix(1.0418644,0,0,0.95602463,-5.7526656,5.7318714)">
      <path
         style="fill:#fefefe;stroke-width:0.10931682"
         d="m 11.011726,199.10417 v -85.95178 h 90.285914 90.28591 v 85.95178 85.95178 H 101.29764 11.011726 Z"
         id="path487"
         inkscape:connector-curvature="0" />
      <path
         style="fill:#eea3a1;stroke-width:0.10931682"
         d="m 146.83758,216.73707 c 0.0539,-63.06876 0.0614,-65.09995 0.23882,-65.30131 0.34042,-0.38624 41.40025,-32.86624 41.54811,-32.86624 0.12843,0 0.15477,2.50801 0.21267,20.24393 0.0363,11.13416 0.0661,34.76881 0.0661,52.52144 v 32.27751 l -20.8956,29.06654 c -11.49258,15.9866 -20.96988,29.08568 -21.06067,29.10907 -0.15382,0.0396 -0.16129,-4.39792 -0.10941,-65.05094 z m -97.675828,31.50295 c -24.075114,-23.93915 -33.374251,-33.2525 -33.375194,-33.42618 -9.57e-4,-0.17634 3.742885,-3.86436 13.992189,-13.78358 15.853237,-15.34267 15.047805,-14.57534 15.216624,-14.49678 0.06959,0.0324 8.611628,8.25225 18.982304,18.26637 l 18.855773,18.2075 v 29.18685 c 0,25.85374 -0.017,29.18938 -0.148905,29.20904 -0.0819,0.0122 -15.167153,-14.91124 -33.522791,-33.16322 z m 35.276471,22.4663 c -0.03628,-5.91235 -0.066,-18.75986 -0.06603,-28.55001 -6e-5,-17.18232 0.0062,-17.79829 0.181391,-17.74274 0.0998,0.0317 6.552901,6.17286 14.340226,13.64715 10.47824,10.05702 14.15784,13.65219 14.15519,13.83036 -0.002,0.16862 -4.22911,4.62365 -14.104661,14.86701 -7.755594,8.04444 -14.17737,14.64239 -14.270612,14.66211 -0.158415,0.0335 -0.173859,-0.66915 -0.235503,-10.71388 z M 114.76739,251.80526 C 92.458712,230.10872 84.282862,222.09249 84.283253,221.9163 c 3.97e-4,-0.17403 4.456324,-4.64463 16.078107,-16.131 8.84267,-8.73964 16.13282,-15.90337 16.20033,-15.9194 0.0675,-0.016 6.62246,6.51456 14.56653,14.51243 l 14.44376,14.54158 0.0228,20.097 c 0.0275,24.24323 -0.0716,42.32716 -0.23238,42.39204 -0.0607,0.0245 -13.82842,-13.29718 -30.59499,-29.60369 z M 48.377103,187.06072 c -19.875702,-19.22526 -34.238377,-33.1985 -34.238377,-33.31004 0,-0.12403 8.702364,-6.94639 24.554098,-19.24958 19.721064,-15.30633 24.588455,-19.03515 24.72865,-18.94416 0.432802,0.28089 30.732154,28.67793 30.75945,28.82826 0.01952,0.10748 -2.034397,1.84307 -5.633385,4.76028 l -5.664101,4.59113 -0.025,33.17696 c -0.01805,23.95773 -0.05528,33.1892 -0.133979,33.22101 -0.05994,0.0242 -15.516253,-14.859 -34.347361,-33.07386 z m 35.961803,21.17822 c -0.03632,-6.56886 -0.06605,-20.68684 -0.06605,-31.3733 0,-18.71039 0.0067,-19.42849 0.180346,-19.39145 0.09919,0.0212 7.065043,7.02656 15.479673,15.56757 10.968415,11.13314 15.299305,15.59726 15.299235,15.76986 -7e-5,0.17226 -4.33875,4.65918 -15.248891,15.76987 -8.386835,8.54101 -15.322925,15.54524 -15.413531,15.56496 -0.152203,0.0331 -0.169766,-0.8731 -0.230786,-11.90751 z m 30.545704,-22.57207 c -16.754567,-16.53318 -30.495622,-30.11899 -30.535683,-30.1907 -0.04006,-0.0717 -0.05973,-0.18071 -0.0437,-0.24224 0.01603,-0.0615 10.49457,-8.36258 23.285653,-18.44678 21.4881,-16.94073 23.27343,-18.32359 23.479,-18.18599 0.12237,0.0819 5.97207,5.3195 12.99934,11.63909 8.0663,7.25399 12.76642,11.55457 12.74855,11.66485 -0.0156,0.0961 -2.5299,2.14232 -5.58741,4.5472 l -5.55911,4.37251 -0.0496,32.40582 c -0.0367,23.95064 -0.0789,32.41766 -0.16189,32.4512 -0.0618,0.025 -13.82055,-13.48177 -30.57511,-30.01496 z M 14.337479,214.01376 c -0.0281,-0.0896 -0.03965,-12.83904 -0.02565,-28.33203 0.02311,-25.58858 0.03981,-28.16785 0.182316,-28.15576 0.144104,0.0122 28.945527,27.86476 29.093722,28.1352 0.0359,0.0655 0.04413,0.17819 0.01828,0.2504 -0.05622,0.15709 -28.873179,28.1049 -29.076489,28.19951 -0.07759,0.0361 -0.164075,-0.008 -0.192177,-0.0973 z"
         id="path485"
         inkscape:connector-curvature="0" />
      <path
         style="fill:#de827e;stroke-width:0.10931682"
         d="m 146.9265,234.88732 c 0.008,-25.67268 0.0414,-54.93029 0.0744,-65.0169 l 0.0601,-18.33931 20.64812,-16.37581 c 11.35647,-9.0067 20.71889,-16.39994 20.80537,-16.42943 0.14285,-0.0487 0.1633,1.79137 0.22333,20.08888 0.0363,11.07836 0.0655,34.68747 0.0647,52.46468 l -10e-4,32.3222 -20.82048,28.9743 c -11.45126,15.93586 -20.87631,28.97759 -20.94456,28.98164 -0.0991,0.006 -0.12119,-9.39568 -0.10971,-46.67025 z m -97.682042,13.25584 c -18.352681,-18.24594 -33.36851,-33.24552 -33.36851,-33.3324 0,-0.12781 9.016158,-8.90925 27.279833,-26.56964 1.243734,-1.20265 1.758389,-1.6336 1.864723,-1.56143 0.08078,0.0548 8.610569,8.27212 18.95509,18.26068 l 18.808219,18.16101 v 29.04409 c 0,16.09404 -0.03809,29.07264 -0.08542,29.10811 -0.04698,0.0352 -15.101251,-14.86448 -33.453932,-33.11042 z m 35.293028,22.62258 c -0.09143,-14.64832 -0.08294,-46.26125 0.01242,-46.26125 0.159703,0 28.411934,27.22419 28.411934,27.37808 0,0.15846 -28.028583,29.3492 -28.245339,29.41648 -0.08355,0.0259 -0.130271,-2.72285 -0.179019,-10.53331 z M 114.81906,251.69889 C 98.073248,235.40617 84.37213,222.00474 84.37213,221.91795 c 0,-0.11496 22.23177,-22.20756 31.5985,-31.4007 0.39871,-0.39132 0.6213,-0.53571 0.72125,-0.46788 0.0795,0.054 6.60461,6.59604 14.5002,14.53795 l 14.35564,14.43985 -0.0528,31.04063 c -0.0303,17.80498 -0.0904,31.08618 -0.14087,31.14744 -0.0512,0.0621 -12.81823,-12.27893 -30.53499,-29.51635 z M 55.23316,193.5483 C 40.165802,178.97439 24.761046,164.07315 21.000371,160.43443 c -6.651494,-6.4358 -6.832515,-6.62184 -6.651079,-6.83541 0.102582,-0.12075 11.121183,-8.70539 24.48578,-19.07699 15.19681,-11.79348 24.371028,-18.84321 24.490833,-18.81945 0.139976,0.0278 26.506453,24.54952 30.310586,28.18992 0.449257,0.42992 0.473244,0.47905 0.323261,0.66209 -0.0891,0.10875 -2.628971,2.20206 -5.644154,4.6518 l -5.48215,4.45409 -0.025,33.09887 c -0.01375,18.20438 -0.05989,33.14119 -0.102545,33.19292 -0.04265,0.0517 -12.405387,-11.83007 -27.472747,-26.40397 z m 29.205011,14.75031 c -0.03632,-6.46926 -0.06604,-20.53486 -0.06604,-31.2569 0,-17.18798 0.01744,-19.48651 0.147355,-19.42605 0.284086,0.1322 30.626294,31.03898 30.626294,31.19615 0,0.15155 -30.238481,31.06151 -30.510637,31.18816 -0.107567,0.05 -0.142714,-2.03788 -0.196972,-11.70136 z M 115.0415,185.67431 C 98.364443,169.21715 84.637057,155.65399 84.536203,155.53396 c -0.177997,-0.21185 -0.173633,-0.22711 0.148905,-0.52097 0.182752,-0.1665 10.618645,-8.41095 23.190872,-18.32101 14.53947,-11.46072 22.92903,-18.00438 23.05211,-17.98008 0.18938,0.0374 25.49894,22.71887 25.73314,23.0611 0.0936,0.13677 0.0882,0.19626 -0.0254,0.28004 -0.0793,0.0585 -2.60115,2.0447 -5.60406,4.41376 l -5.45984,4.30738 -0.025,32.31498 c -0.0137,17.77325 -0.0607,32.35825 -0.10427,32.41112 -0.0436,0.0529 -13.72414,-13.36881 -30.40121,-29.82597 z m -100.6546,0.1278 c 0,-15.52609 0.0335,-28.22924 0.07445,-28.22922 0.154064,9e-5 29.011607,28.0794 29.011607,28.22922 0,0.14982 -28.857543,28.22913 -29.011607,28.22922 -0.04095,2e-5 -0.07445,-12.70313 -0.07445,-28.22922 z"
         id="path483"
         inkscape:connector-curvature="0" />
      <path
         style="fill:#e35f5b;stroke-width:0.10931682"
         d="m 146.95882,216.66469 c 0.0546,-49.62908 0.0991,-64.96547 0.18863,-65.07954 0.26268,-0.33459 41.41108,-32.87944 41.47146,-32.80035 0.036,0.0471 0.0974,23.6231 0.13655,52.39106 l 0.0711,52.30539 -20.85831,29.01174 c -11.47207,15.95645 -20.90841,29.03204 -20.96963,29.05686 -0.0822,0.0333 -0.0926,-16.93309 -0.0398,-64.88516 z M 49.42915,248.27053 C 31.220582,230.16366 16.213352,215.21666 16.079752,215.05495 c -0.133601,-0.1617 -0.222944,-0.31546 -0.19854,-0.34168 0.678318,-0.72893 28.952429,-28.00831 29.029624,-28.00831 0.06181,0 8.597348,8.19401 18.967862,18.20891 l 18.85548,18.2089 v 29.00037 c 0,19.23047 -0.03344,29.01193 -0.09927,29.03466 -0.0546,0.0189 -14.997189,-14.78042 -33.205758,-32.88727 z m 35.14146,15.75773 c -3.2e-5,-9.45624 -0.02973,-22.19047 -0.066,-28.29828 -0.05119,-8.6198 -0.0392,-11.10511 0.05354,-11.10511 0.102611,0 26.42895,25.20138 27.88728,26.69562 0.50401,0.51642 0.51884,0.54837 0.35588,0.76674 -0.35084,0.47011 -27.946597,29.05801 -28.08553,29.09527 -0.126769,0.034 -0.145115,-2.13391 -0.145167,-17.15424 z m 30.2066,-12.41549 C 98.058481,235.34593 84.379731,221.98251 84.379987,221.9163 c 5.96e-4,-0.14774 31.974593,-31.7669 32.171593,-31.81454 0.11563,-0.028 27.9953,27.89149 28.75962,28.80067 l 0.23558,0.28021 -0.0867,30.97048 c -0.0572,20.45576 -0.12036,30.98156 -0.18593,31.00312 -0.0546,0.0179 -13.77822,-13.27661 -30.49696,-29.54347 z M 48.436452,186.93002 c -18.754553,-18.14438 -34.11245,-33.05885 -34.128661,-33.14325 -0.0276,-0.14369 48.557664,-37.95665 48.915823,-38.07022 0.170002,-0.0539 30.706851,28.40008 30.75623,28.65841 0.0155,0.0811 -2.49727,2.20149 -5.583928,4.71205 l -5.612103,4.56464 v 33.13918 c 0,26.43382 -0.02511,33.13816 -0.124088,33.13409 -0.06825,-0.003 -15.468721,-14.85051 -34.223273,-32.9949 z m 36.034894,14.07897 c -2.9e-5,-10.41627 -0.02977,-24.42923 -0.06609,-31.13989 -0.06064,-11.20486 -0.05291,-12.19772 0.09461,-12.15845 0.128601,0.0342 25.684744,25.90524 29.633394,29.9985 0.98961,1.02583 1.02059,1.07269 0.8557,1.29364 -0.33051,0.44287 -30.230814,30.86749 -30.373356,30.90596 -0.125625,0.0339 -0.144217,-2.40178 -0.144264,-18.89976 z M 114.8976,185.48469 C 98.19049,168.99366 84.507954,155.43403 84.491967,155.35218 c -0.02739,-0.1402 45.988603,-36.51646 46.330513,-36.62488 0.17755,-0.0563 25.75009,22.8653 25.79785,23.12359 0.0176,0.0952 -2.20245,1.91344 -5.53429,4.5326 l -5.56369,4.37363 v 32.35941 c 0,25.80929 -0.0251,32.35864 -0.12409,32.35563 -0.0683,-0.002 -13.79355,-13.49644 -30.50066,-29.98747 z M 14.455148,213.83324 c -0.109677,-0.133 -0.08274,-55.99456 0.02704,-56.07683 0.108111,-0.081 28.980258,27.85997 28.980339,28.0457 4.4e-5,0.0992 -28.665093,27.978 -28.873382,28.08129 -0.03616,0.0179 -0.09646,-0.005 -0.133994,-0.0502 z"
         id="path481"
         inkscape:connector-curvature="0" />
      <path
         style="fill:#fe0000;stroke-width:0.10931682"
         d="m 147.05809,216.54431 c 0.0538,-48.74047 0.0999,-64.84328 0.18611,-64.94444 0.20546,-0.2411 41.16591,-32.66921 41.26499,-32.66921 0.0616,0 0.0963,4.91233 0.0963,13.64318 0,7.50375 0.028,31.02763 0.0621,52.2753 l 0.0621,38.63211 -20.77529,28.89136 c -11.42641,15.89024 -20.8186,28.91166 -20.87153,28.93648 -0.0621,0.0291 -0.0709,-22.92823 -0.0248,-64.76478 z M 49.287126,247.99686 C 31.000444,229.80849 16.035517,214.87921 16.031733,214.82069 c -0.01062,-0.1643 28.764295,-28.00043 28.908904,-27.96575 0.07014,0.0168 8.591217,8.20388 18.93572,18.19346 l 18.808186,18.16286 v 28.93606 c 0,15.91484 -0.0335,28.9323 -0.07445,28.92769 -0.04095,-0.005 -15.036283,-14.88977 -33.322965,-33.07815 z m 35.333072,4.97768 c -0.04087,-15.46544 -0.05042,-28.14796 -0.0212,-28.1834 0.04935,-0.0598 27.535072,26.25716 28.049642,26.85695 l 0.2328,0.27134 -14.011537,14.55189 c -7.706345,8.00353 -14.048402,14.5677 -14.093461,14.58704 -0.04506,0.0193 -0.115369,-12.61838 -0.156246,-28.08382 z m 30.329582,-1.3357 C 98.325964,235.45563 84.663393,222.14053 84.588511,222.04972 c -0.11535,-0.13988 2.310487,-2.58561 15.880629,-16.01082 8.80923,-8.71514 16.07473,-15.83154 16.14557,-15.81421 0.0708,0.0173 6.5887,6.53206 14.48416,14.47718 l 14.35536,14.44568 -0.0652,23.17327 c -0.0359,12.7453 -0.0652,26.68087 -0.0652,30.96792 -2e-5,4.28706 -0.0335,7.79003 -0.0745,7.78438 -0.0409,-0.006 -13.67576,-13.25107 -30.29957,-29.43428 z M 48.492979,186.84704 C 29.769517,168.72685 14.437255,153.84707 14.421287,153.78086 c -0.02846,-0.11801 48.559053,-37.88852 48.821585,-37.95247 0.141036,-0.0344 30.579166,28.35579 30.623208,28.56278 0.01409,0.0662 -2.484826,2.15684 -5.553143,4.64584 l -5.578759,4.52547 -0.025,33.12358 c -0.01375,18.21797 -0.05842,33.1198 -0.09927,33.11519 -0.04085,-0.005 -15.393472,-14.83401 -34.116934,-32.95421 z m 36.044544,9.75923 c -0.08528,-29.95303 -0.08338,-38.79394 0.0083,-38.78715 0.122038,0.009 30.435537,30.86218 30.443607,30.98557 0.007,0.10723 -30.204852,30.98825 -30.327877,30.9996 -0.03189,0.003 -0.08772,-10.43617 -0.124058,-23.19802 z M 114.95429,185.40389 C 98.278345,168.93815 84.621422,155.41202 84.605567,155.34581 c -0.0361,-0.15073 46.048823,-36.47534 46.276133,-36.47534 0.19403,0 25.64482,22.81393 25.65024,22.9927 0.002,0.0662 -2.48551,2.07445 -5.5278,4.46275 l -5.53143,4.34237 -0.025,32.34363 c -0.0137,17.789 -0.0584,32.3405 -0.0993,32.33665 -0.0409,-0.004 -13.71822,-13.47894 -30.39415,-29.94468 z m -100.46812,0.39822 c 0,-15.39368 0.02254,-27.9885 0.05009,-27.9885 0.0727,0 28.837435,27.91793 28.837435,27.9885 0,0.0706 -28.76473,27.9885 -28.837435,27.9885 -0.02755,0 -0.05009,-12.59483 -0.05009,-27.9885 z"
         id="path479"
         inkscape:connector-curvature="0" />
      <path
         style="fill:#d30b00;stroke-width:0.10931682"
         d="m 147.05809,216.54431 c 0.0538,-48.74047 0.0999,-64.84328 0.18611,-64.94444 0.20546,-0.2411 41.16591,-32.66921 41.26499,-32.66921 0.0616,0 0.0963,4.91233 0.0963,13.64318 0,7.50375 0.028,31.02763 0.0621,52.2753 l 0.0621,38.63211 -20.77529,28.89136 c -11.42641,15.89024 -20.8186,28.91166 -20.87153,28.93648 -0.0621,0.0291 -0.0709,-22.92823 -0.0248,-64.76478 z M 49.287126,247.99686 C 31.000444,229.80849 16.035517,214.87921 16.031733,214.82069 c -0.01062,-0.1643 28.764295,-28.00043 28.908904,-27.96575 0.07014,0.0168 8.591217,8.20388 18.93572,18.19346 l 18.808186,18.16286 v 28.93606 c 0,15.91484 -0.0335,28.9323 -0.07445,28.92769 -0.04095,-0.005 -15.036283,-14.88977 -33.322965,-33.07815 z m 35.333072,4.97768 c -0.04087,-15.46544 -0.05042,-28.14796 -0.0212,-28.1834 0.04935,-0.0598 27.535072,26.25716 28.049642,26.85695 l 0.2328,0.27134 -14.011537,14.55189 c -7.706345,8.00353 -14.048402,14.5677 -14.093461,14.58704 -0.04506,0.0193 -0.115369,-12.61838 -0.156246,-28.08382 z m 30.329582,-1.3357 C 98.325964,235.45563 84.663393,222.14053 84.588511,222.04972 c -0.11535,-0.13988 2.310487,-2.58561 15.880629,-16.01082 8.80923,-8.71514 16.07473,-15.83154 16.14557,-15.81421 0.0708,0.0173 6.5887,6.53206 14.48416,14.47718 l 14.35536,14.44568 -0.0652,23.17327 c -0.0359,12.7453 -0.0652,26.68087 -0.0652,30.96792 -2e-5,4.28706 -0.0335,7.79003 -0.0745,7.78438 -0.0409,-0.006 -13.67576,-13.25107 -30.29957,-29.43428 z M 84.537523,196.60627 c -0.08528,-29.95303 -0.08338,-38.79394 0.0083,-38.78715 0.122038,0.009 30.435537,30.86218 30.443607,30.98557 0.007,0.10723 -30.204852,30.98825 -30.327877,30.9996 -0.03189,0.003 -0.08772,-10.43617 -0.124058,-23.19802 z M 14.48617,185.80211 c 0,-15.39368 0.02254,-27.9885 0.05009,-27.9885 0.0727,0 28.837435,27.91793 28.837435,27.9885 0,0.0706 -28.76473,27.9885 -28.837435,27.9885 -0.02755,0 -0.05009,-12.59483 -0.05009,-27.9885 z"
         id="path477"
         inkscape:connector-curvature="0" />
      <path
         style="fill:#c00400;stroke-width:0.10931682"
         d="m 147.11069,240.72989 c 1e-5,-22.26515 0.0298,-51.41267 0.0661,-64.77224 l 0.0661,-24.29014 20.58609,-16.32336 c 11.32235,-8.97784 20.61063,-16.29359 20.64063,-16.25722 0.03,0.0364 0.079,23.53998 0.10881,52.23023 l 0.0543,52.16409 -20.08037,27.92831 c -11.04421,15.36057 -20.38666,28.34999 -20.76101,28.86538 l -0.68065,0.93708 z m -62.490492,12.24465 c -0.04087,-15.46544 -0.05042,-28.14796 -0.0212,-28.1834 0.04935,-0.0598 27.535072,26.25716 28.049642,26.85695 l 0.2328,0.27134 -14.011537,14.55189 c -7.706345,8.00353 -14.048402,14.5677 -14.093461,14.58704 -0.04506,0.0193 -0.115369,-12.61838 -0.156246,-28.08382 z m -0.08268,-56.36827 c -0.08528,-29.95303 -0.08338,-38.79394 0.0083,-38.78715 0.122038,0.009 30.435542,30.86218 30.443612,30.98557 0.007,0.10723 -30.204857,30.98825 -30.327882,30.9996 -0.03189,0.003 -0.08772,-10.43617 -0.124058,-23.19802 z M 14.48617,185.80211 c 0,-15.39368 0.02254,-27.9885 0.05009,-27.9885 0.0727,0 28.837435,27.91793 28.837435,27.9885 0,0.0706 -28.76473,27.9885 -28.837435,27.9885 -0.02755,0 -0.05009,-12.59483 -0.05009,-27.9885 z"
         id="path475"
         inkscape:connector-curvature="0" />
      <path
         style="fill:#ad0900;stroke-width:0.10931682"
         d="m 84.620198,252.97454 c -0.04087,-15.46544 -0.05042,-28.14796 -0.0212,-28.1834 0.04935,-0.0598 27.535072,26.25716 28.049642,26.85695 l 0.2328,0.27134 -14.011537,14.55189 c -7.706345,8.00353 -14.048402,14.5677 -14.093461,14.58704 -0.04506,0.0193 -0.115369,-12.61838 -0.156246,-28.08382 z m -0.08268,-56.36827 c -0.08528,-29.95303 -0.08338,-38.79394 0.0083,-38.78715 0.122038,0.009 30.435542,30.86218 30.443612,30.98557 0.007,0.10723 -30.204857,30.98825 -30.327882,30.9996 -0.03189,0.003 -0.08772,-10.43617 -0.124058,-23.19802 z M 14.48617,185.80211 c 0,-15.39368 0.02254,-27.9885 0.05009,-27.9885 0.0727,0 28.837435,27.91793 28.837435,27.9885 0,0.0706 -28.76473,27.9885 -28.837435,27.9885 -0.02755,0 -0.05009,-12.59483 -0.05009,-27.9885 z"
         id="path473"
         inkscape:connector-curvature="0" />
    </g>
  </g>
</svg>
